<svg xmlns="http://www.w3.org/2000/svg" xmlns:xlink="http://www.w3.org/1999/xlink" width="90" zoomAndPan="magnify" viewBox="0 0 67.5 56.249996" height="75" preserveAspectRatio="xMidYMid meet" version="1.0"><defs><clipPath id="4758af0e07"><path d="M 0.199219 0 L 66.808594 0 L 66.808594 55.511719 L 0.199219 55.511719 Z M 0.199219 0 " clip-rule="nonzero"/></clipPath><clipPath id="a3a72353d9"><path d="M 3.898438 0 L 63.109375 0 C 64.089844 0 65.03125 0.390625 65.726562 1.082031 C 66.417969 1.777344 66.808594 2.71875 66.808594 3.699219 L 66.808594 51.808594 C 66.808594 52.789062 66.417969 53.730469 65.726562 54.425781 C 65.03125 55.121094 64.089844 55.511719 63.109375 55.511719 L 3.898438 55.511719 C 2.917969 55.511719 1.976562 55.121094 1.28125 54.425781 C 0.585938 53.730469 0.199219 52.789062 0.199219 51.808594 L 0.199219 3.699219 C 0.199219 2.71875 0.585938 1.777344 1.28125 1.082031 C 1.976562 0.390625 2.917969 0 3.898438 0 Z M 3.898438 0 " clip-rule="nonzero"/></clipPath><clipPath id="e20b8b260d"><path d="M 18.277344 4.902344 L 48.621094 4.902344 L 48.621094 50.789062 L 18.277344 50.789062 Z M 18.277344 4.902344 " clip-rule="nonzero"/></clipPath></defs><g clip-path="url(#4758af0e07)"><g clip-path="url(#a3a72353d9)"><path fill="#575d68" d="M 0.199219 0 L 66.765625 0 L 66.765625 55.511719 L 0.199219 55.511719 Z M 0.199219 0 " fill-opacity="1" fill-rule="nonzero"/><path stroke-linecap="butt" transform="matrix(0.740132, 0, 0, 0.740132, 0.197371, -0.00000123359)" fill="none" stroke-linejoin="miter" d="M 5.000553 0.00000166671 L 85.001112 0.00000166671 C 86.325834 0.00000166671 87.597779 0.527779 88.537223 1.461946 C 89.47139 2.401391 89.999168 3.673335 89.999168 4.998057 L 89.999168 69.999171 C 89.999168 71.323894 89.47139 72.595838 88.537223 73.535283 C 87.597779 74.474727 86.325834 75.002505 85.001112 75.002505 L 5.000553 75.002505 C 3.675831 75.002505 2.403886 74.474727 1.464442 73.535283 C 0.524997 72.595838 0.00249702 71.323894 0.00249702 69.999171 L 0.00249702 4.998057 C 0.00249702 3.673335 0.524997 2.401391 1.464442 1.461946 C 2.403886 0.527779 3.675831 0.00000166671 5.000553 0.00000166671 Z M 5.000553 0.00000166671 " stroke="#575d68" stroke-width="6" stroke-opacity="1" stroke-miterlimit="4"/></g></g><g clip-path="url(#e20b8b260d)"><path fill="#ffffff" d="M 33.769531 4.902344 C 24.328125 4.902344 18.972656 10.191406 18.820312 17.847656 L 18.820312 18.230469 L 27.15625 18.230469 L 27.15625 17.847656 C 27.339844 14.464844 29.679688 12.285156 33.214844 12.285156 C 36.71875 12.285156 39.058594 14.3125 39.058594 17.171875 C 39.058594 20.03125 37.859375 21.507812 33.890625 23.878906 C 29.644531 26.367188 27.953125 29.136719 28.351562 34.058594 L 28.402344 35.371094 L 36.566406 35.371094 L 36.566406 34.121094 C 36.566406 31.167969 37.703125 29.660156 41.792969 27.292969 C 46.128906 24.738281 48.375 21.511719 48.375 16.894531 C 48.375 9.792969 42.5625 4.902344 33.769531 4.902344 Z M 32.660156 41.082031 C 29.53125 41.082031 27.578125 42.898438 27.578125 45.859375 C 27.578125 48.792969 29.53125 50.605469 32.660156 50.605469 C 35.785156 50.605469 37.714844 48.792969 37.714844 45.859375 C 37.714844 42.898438 35.789062 41.082031 32.660156 41.082031 Z M 32.660156 41.082031 " fill-opacity="1" fill-rule="nonzero"/></g></svg>