<svg xmlns="http://www.w3.org/2000/svg" xmlns:xlink="http://www.w3.org/1999/xlink" width="90" zoomAndPan="magnify" viewBox="0 0 67.5 56.249996" height="75" preserveAspectRatio="xMidYMid meet" version="1.0"><defs><clipPath id="55eb3c4466"><path d="M 14.261719 0 L 66.808594 0 L 66.808594 55.511719 L 14.261719 55.511719 Z M 14.261719 0 " clip-rule="nonzero"/></clipPath><clipPath id="693b936eb2"><path d="M 17.960938 0 L 63.109375 0 C 64.089844 0 65.03125 0.390625 65.726562 1.082031 C 66.417969 1.777344 66.808594 2.71875 66.808594 3.699219 L 66.808594 51.808594 C 66.808594 52.789062 66.417969 53.730469 65.726562 54.425781 C 65.03125 55.121094 64.089844 55.511719 63.109375 55.511719 L 17.960938 55.511719 C 16.980469 55.511719 16.039062 55.121094 15.34375 54.425781 C 14.648438 53.730469 14.261719 52.789062 14.261719 51.808594 L 14.261719 3.699219 C 14.261719 2.71875 14.648438 1.777344 15.34375 1.082031 C 16.039062 0.390625 16.980469 0 17.960938 0 Z M 17.960938 0 " clip-rule="nonzero"/></clipPath><clipPath id="85f0970f52"><path d="M 0.199219 16.648438 L 28.324219 16.648438 L 28.324219 32.1875 L 0.199219 32.1875 Z M 0.199219 16.648438 " clip-rule="nonzero"/></clipPath><clipPath id="76e2acdde6"><path d="M 0.199219 26.050781 L 24.175781 26.050781 L 24.175781 55.511719 L 0.199219 55.511719 Z M 0.199219 26.050781 " clip-rule="nonzero"/></clipPath><clipPath id="4072daf004"><path d="M 3.898438 26.050781 L 20.476562 26.050781 C 21.457031 26.050781 22.398438 26.441406 23.09375 27.136719 C 23.789062 27.832031 24.175781 28.773438 24.175781 29.753906 L 24.175781 51.808594 C 24.175781 52.789062 23.789062 53.730469 23.09375 54.425781 C 22.398438 55.121094 21.457031 55.511719 20.476562 55.511719 L 3.898438 55.511719 C 2.917969 55.511719 1.976562 55.121094 1.28125 54.425781 C 0.585938 53.730469 0.199219 52.789062 0.199219 51.808594 L 0.199219 29.753906 C 0.199219 28.773438 0.585938 27.832031 1.28125 27.136719 C 1.976562 26.441406 2.917969 26.050781 3.898438 26.050781 Z M 3.898438 26.050781 " clip-rule="nonzero"/></clipPath><clipPath id="c408ab69b5"><path d="M 13.074219 21.34375 L 58.964844 21.34375 L 58.964844 46.507812 L 13.074219 46.507812 Z M 13.074219 21.34375 " clip-rule="nonzero"/></clipPath><clipPath id="252fedba23"><path d="M 0.199219 0 L 15 0 L 15 14 L 0.199219 14 Z M 0.199219 0 " clip-rule="nonzero"/></clipPath><clipPath id="45dd7680de"><path d="M 21.117188 7 L 7.191406 20.925781 L 0.1875 13.921875 L 14.113281 0 Z M 21.117188 7 " clip-rule="nonzero"/></clipPath><clipPath id="a7e16a3223"><path d="M 14.152344 13.964844 L 0.1875 13.921875 L 14.113281 0 Z M 14.152344 13.964844 " clip-rule="nonzero"/></clipPath><clipPath id="1c4479f627"><path d="M 0.199219 14 L 18 14 L 18 17 L 0.199219 17 Z M 0.199219 14 " clip-rule="nonzero"/></clipPath></defs><g clip-path="url(#55eb3c4466)"><g clip-path="url(#693b936eb2)"><path fill="#575d68" d="M 14.261719 0 L 66.808594 0 L 66.808594 55.421875 L 14.261719 55.421875 Z M 14.261719 0 " fill-opacity="1" fill-rule="nonzero"/></g></g><g clip-path="url(#85f0970f52)"><path fill="#575d68" d="M 0.199219 16.648438 L 28.308594 16.648438 L 28.308594 32.1875 L 0.199219 32.1875 Z M 0.199219 16.648438 " fill-opacity="1" fill-rule="nonzero"/></g><g clip-path="url(#76e2acdde6)"><g clip-path="url(#4072daf004)"><path fill="#575d68" d="M 0.199219 26.050781 L 24.175781 26.050781 L 24.175781 55.464844 L 0.199219 55.464844 Z M 0.199219 26.050781 " fill-opacity="1" fill-rule="nonzero"/></g></g><g clip-path="url(#c408ab69b5)"><path fill="#ffffff" d="M 2.578125 70.261719 C 2.578125 70.816406 3.027344 71.269531 3.585938 71.269531 L 68.167969 71.269531 C 68.722656 71.269531 69.175781 70.816406 69.175781 70.261719 L 69.175781 -14.503906 C 69.175781 -15.058594 68.722656 -15.511719 68.167969 -15.511719 L 20.738281 -15.511719 C 20.46875 -15.511719 20.210938 -15.40625 20.023438 -15.214844 L 2.867188 1.9375 C 2.683594 2.128906 2.578125 2.382812 2.578125 2.652344 Z M 21.75 -13.492188 L 21.75 2.652344 C 21.75 3.207031 21.296875 3.660156 20.738281 3.660156 L 4.59375 3.660156 L 4.59375 69.25 L 67.15625 69.25 L 67.15625 -13.492188 Z M 42.9375 35.984375 L 54.429688 44.824219 C 54.738281 45.058594 55.148438 45.101562 55.492188 44.929688 C 55.835938 44.757812 56.058594 44.40625 56.058594 44.023438 L 56.058594 23.84375 C 56.058594 23.460938 55.835938 23.109375 55.492188 22.9375 C 55.148438 22.765625 54.738281 22.808594 54.429688 23.042969 L 42.9375 31.882812 L 42.9375 25.859375 C 42.9375 24.1875 41.578125 22.832031 39.910156 22.832031 L 18.722656 22.832031 C 17.050781 22.832031 15.695312 24.1875 15.695312 25.859375 L 15.695312 42.007812 C 15.695312 43.675781 17.050781 45.03125 18.722656 45.03125 L 39.910156 45.03125 C 41.578125 45.03125 42.9375 43.675781 42.9375 42.007812 Z M 19.730469 -12.066406 L 6.015625 1.644531 L 19.730469 1.644531 L 19.730469 -12.066406 " fill-opacity="1" fill-rule="evenodd"/></g><path stroke-linecap="butt" transform="matrix(0, 0.740131, -0.740131, 0, 16.477647, 0.00261451)" fill="none" stroke-linejoin="miter" d="M 0.00174529 1.500355 L 22.490359 1.500355 " stroke="#ffffff" stroke-width="3" stroke-opacity="1" stroke-miterlimit="4"/><g clip-path="url(#252fedba23)"><g clip-path="url(#45dd7680de)"><g clip-path="url(#a7e16a3223)"><path fill="#575d68" d="M 21.117188 7 L 7.191406 20.925781 L 0.1875 13.921875 L 14.113281 0 Z M 21.117188 7 " fill-opacity="1" fill-rule="nonzero"/></g></g></g><g clip-path="url(#1c4479f627)"><path stroke-linecap="butt" transform="matrix(0.740131, 0, 0, 0.740131, 0.197371, 14.426231)" fill="none" stroke-linejoin="miter" d="M 0.00249702 1.498282 L 22.000277 1.498282 " stroke="#ffffff" stroke-width="3" stroke-opacity="1" stroke-miterlimit="4"/></g></svg>