<svg xmlns="http://www.w3.org/2000/svg" xmlns:xlink="http://www.w3.org/1999/xlink" width="240" zoomAndPan="magnify" viewBox="0 0 180 101.249998" height="135" preserveAspectRatio="xMidYMid meet" version="1.0"><defs><clipPath id="4b3be96588"><path d="M 0.660156 0 L 179.335938 0 L 179.335938 100.503906 L 0.660156 100.503906 Z M 0.660156 0 " clip-rule="nonzero"/></clipPath><clipPath id="1d18deeca2"><path d="M 4.382812 0 L 175.617188 0 C 176.601562 0 177.550781 0.390625 178.246094 1.089844 C 178.945312 1.789062 179.339844 2.734375 179.339844 3.722656 L 179.339844 96.808594 C 179.339844 97.792969 178.945312 98.742188 178.246094 99.4375 C 177.550781 100.136719 176.601562 100.527344 175.617188 100.527344 L 4.382812 100.527344 C 3.398438 100.527344 2.449219 100.136719 1.753906 99.4375 C 1.054688 98.742188 0.660156 97.792969 0.660156 96.808594 L 0.660156 3.722656 C 0.660156 2.734375 1.054688 1.789062 1.753906 1.089844 C 2.449219 0.390625 3.398438 0 4.382812 0 Z M 4.382812 0 " clip-rule="nonzero"/></clipPath><clipPath id="796cd2f3a3"><path d="M 0.660156 0 L 179.335938 0 L 179.335938 100.503906 L 0.660156 100.503906 Z M 0.660156 0 " clip-rule="nonzero"/></clipPath><clipPath id="f29f0ced0c"><path d="M 4.382812 0 L 175.617188 0 C 176.601562 0 177.550781 0.390625 178.246094 1.089844 C 178.945312 1.789062 179.339844 2.734375 179.339844 3.722656 L 179.339844 96.804688 C 179.339844 97.792969 178.945312 98.742188 178.246094 99.4375 C 177.550781 100.136719 176.601562 100.527344 175.617188 100.527344 L 4.382812 100.527344 C 3.398438 100.527344 2.449219 100.136719 1.753906 99.4375 C 1.054688 98.742188 0.660156 97.792969 0.660156 96.804688 L 0.660156 3.722656 C 0.660156 2.734375 1.054688 1.789062 1.753906 1.089844 C 2.449219 0.390625 3.398438 0 4.382812 0 Z M 4.382812 0 " clip-rule="nonzero"/></clipPath><clipPath id="afedffb038"><path d="M 6.546875 5.273438 L 86.261719 5.273438 L 86.261719 95.265625 L 6.546875 95.265625 Z M 6.546875 5.273438 " clip-rule="nonzero"/></clipPath><clipPath id="de111d1ae0"><path d="M 8.777344 5.273438 L 84.03125 5.273438 C 85.261719 5.273438 86.261719 6.273438 86.261719 7.503906 L 86.261719 93.023438 C 86.261719 94.257812 85.261719 95.257812 84.03125 95.257812 L 8.777344 95.257812 C 7.546875 95.257812 6.546875 94.257812 6.546875 93.023438 L 6.546875 7.503906 C 6.546875 6.273438 7.546875 5.273438 8.777344 5.273438 Z M 8.777344 5.273438 " clip-rule="nonzero"/></clipPath><clipPath id="3f585351eb"><path d="M 90 5.273438 L 173.675781 5.273438 L 173.675781 95.484375 L 90 95.484375 Z M 90 5.273438 " clip-rule="nonzero"/></clipPath><clipPath id="76bbe99ed4"><path d="M 92.234375 5.273438 L 171.441406 5.273438 C 172.675781 5.273438 173.675781 6.273438 173.675781 7.503906 L 173.675781 93.023438 C 173.675781 94.257812 172.675781 95.257812 171.441406 95.257812 L 92.234375 95.257812 C 91 95.257812 90 94.257812 90 93.023438 L 90 7.503906 C 90 6.273438 91 5.273438 92.234375 5.273438 Z M 92.234375 5.273438 " clip-rule="nonzero"/></clipPath></defs><g clip-path="url(#4b3be96588)"><g clip-path="url(#1d18deeca2)"><path fill="#8f94a2" d="M 0.660156 0 L 179.335938 0 L 179.335938 100.527344 L 0.660156 100.527344 Z M 0.660156 0 " fill-opacity="1" fill-rule="nonzero"/></g></g><g clip-path="url(#796cd2f3a3)"><g clip-path="url(#f29f0ced0c)"><path stroke-linecap="butt" transform="matrix(0.744485, 0, 0, 0.744485, 0.662037, 0.000000992647)" fill="none" stroke-linejoin="miter" d="M 4.997783 -0.00000133333 L 235.001486 -0.00000133333 C 236.323708 -0.00000133333 237.598708 0.52469 238.532659 1.463888 C 239.471856 2.403085 240.001795 3.672838 240.001795 5.000307 L 240.001795 130.029011 C 240.001795 131.35648 239.471856 132.63148 238.532659 133.56543 C 237.598708 134.504628 236.323708 135.029319 235.001486 135.029319 L 4.997783 135.029319 C 3.675561 135.029319 2.400561 134.504628 1.46661 133.56543 C 0.527412 132.63148 -0.00252587 131.35648 -0.00252587 130.029011 L -0.00252587 5.000307 C -0.00252587 3.672838 0.527412 2.403085 1.46661 1.463888 C 2.400561 0.52469 3.675561 -0.00000133333 4.997783 -0.00000133333 Z M 4.997783 -0.00000133333 " stroke="#575d68" stroke-width="4" stroke-opacity="1" stroke-miterlimit="4"/></g></g><g clip-path="url(#afedffb038)"><g clip-path="url(#de111d1ae0)"><path fill="#ffffff" d="M 6.546875 5.273438 L 86.261719 5.273438 L 86.261719 95.265625 L 6.546875 95.265625 Z M 6.546875 5.273438 " fill-opacity="1" fill-rule="nonzero"/></g></g><g clip-path="url(#3f585351eb)"><g clip-path="url(#76bbe99ed4)"><path fill="#ffffff" d="M 90 5.273438 L 173.675781 5.273438 L 173.675781 95.15625 L 90 95.15625 Z M 90 5.273438 " fill-opacity="1" fill-rule="nonzero"/></g></g></svg>