<svg xmlns="http://www.w3.org/2000/svg" xmlns:xlink="http://www.w3.org/1999/xlink" width="240" zoomAndPan="magnify" viewBox="0 0 180 101.249998" height="135" preserveAspectRatio="xMidYMid meet" version="1.0"><defs><g/><clipPath id="a39a5bf830"><path d="M 0.660156 0 L 179.335938 0 L 179.335938 100.503906 L 0.660156 100.503906 Z M 0.660156 0 " clip-rule="nonzero"/></clipPath><clipPath id="8340f0fcd1"><path d="M 4.382812 0 L 175.574219 0 C 176.5625 0 177.507812 0.390625 178.207031 1.089844 C 178.902344 1.789062 179.296875 2.734375 179.296875 3.722656 L 179.296875 96.78125 C 179.296875 97.769531 178.902344 98.71875 178.207031 99.414062 C 177.507812 100.113281 176.5625 100.503906 175.574219 100.503906 L 4.382812 100.503906 C 3.398438 100.503906 2.449219 100.113281 1.753906 99.414062 C 1.054688 98.71875 0.660156 97.769531 0.660156 96.78125 L 0.660156 3.722656 C 0.660156 2.734375 1.054688 1.789062 1.753906 1.089844 C 2.449219 0.390625 3.398438 0 4.382812 0 Z M 4.382812 0 " clip-rule="nonzero"/></clipPath><clipPath id="f86bddf782"><path d="M 0.660156 0 L 179.335938 0 L 179.335938 100.503906 L 0.660156 100.503906 Z M 0.660156 0 " clip-rule="nonzero"/></clipPath><clipPath id="fda590b5f1"><path d="M 4.382812 0 L 175.570312 0 C 176.554688 0 177.503906 0.394531 178.203125 1.089844 C 178.898438 1.789062 179.292969 2.738281 179.292969 3.722656 L 179.292969 96.78125 C 179.292969 97.769531 178.898438 98.714844 178.203125 99.414062 C 177.503906 100.113281 176.554688 100.503906 175.570312 100.503906 L 4.382812 100.503906 C 3.398438 100.503906 2.449219 100.113281 1.753906 99.414062 C 1.054688 98.714844 0.660156 97.769531 0.660156 96.78125 L 0.660156 3.722656 C 0.660156 2.738281 1.054688 1.789062 1.753906 1.089844 C 2.449219 0.394531 3.398438 0 4.382812 0 Z M 4.382812 0 " clip-rule="nonzero"/></clipPath><clipPath id="d2987e33aa"><path d="M 6.542969 5.269531 L 172.832031 5.269531 L 172.832031 93.40625 L 6.542969 93.40625 Z M 6.542969 5.269531 " clip-rule="nonzero"/></clipPath><clipPath id="9442850323"><path d="M 9.523438 5.269531 L 169.664062 5.269531 C 171.308594 5.269531 172.640625 6.605469 172.640625 8.25 L 172.640625 90.429688 C 172.640625 92.074219 171.308594 93.40625 169.664062 93.40625 L 9.523438 93.40625 C 7.878906 93.40625 6.542969 92.074219 6.542969 90.429688 L 6.542969 8.25 C 6.542969 6.605469 7.878906 5.269531 9.523438 5.269531 Z M 9.523438 5.269531 " clip-rule="nonzero"/></clipPath></defs><g clip-path="url(#a39a5bf830)"><g clip-path="url(#8340f0fcd1)"><path fill="#8f94a2" d="M 0.660156 0 L 179.292969 0 L 179.292969 100.503906 L 0.660156 100.503906 Z M 0.660156 0 " fill-opacity="1" fill-rule="nonzero"/></g></g><g clip-path="url(#f86bddf782)"><g clip-path="url(#fda590b5f1)"><path stroke-linecap="butt" transform="matrix(0.744485, 0, 0, 0.744485, 0.661766, 0.00130608)" fill="none" stroke-linejoin="miter" d="M 4.998146 -0.00175434 L 234.938901 -0.00175434 C 236.261123 -0.00175434 237.536123 0.528184 238.475321 1.462135 C 239.409272 2.401332 239.93921 3.676332 239.93921 4.998555 L 239.93921 129.995785 C 239.93921 131.323254 239.409272 132.593007 238.475321 133.532204 C 237.536123 134.471402 236.261123 134.996093 234.938901 134.996093 L 4.998146 134.996093 C 3.675924 134.996093 2.400924 134.471402 1.466973 133.532204 C 0.527775 132.593007 -0.00216286 131.323254 -0.00216286 129.995785 L -0.00216286 4.998555 C -0.00216286 3.676332 0.527775 2.401332 1.466973 1.462135 C 2.400924 0.528184 3.675924 -0.00175434 4.998146 -0.00175434 Z M 4.998146 -0.00175434 " stroke="#575d68" stroke-width="4" stroke-opacity="1" stroke-miterlimit="4"/></g></g><g clip-path="url(#d2987e33aa)"><g clip-path="url(#9442850323)"><path fill="#ffffff" d="M 6.542969 5.269531 L 172.488281 5.269531 L 172.488281 93.40625 L 6.542969 93.40625 Z M 6.542969 5.269531 " fill-opacity="1" fill-rule="nonzero"/></g></g><g fill="#8f94a2" fill-opacity="1"><g transform="translate(82.528078, 58.873865)"><g><path d="M 8.625 -11.0625 L 12.953125 -11.0625 L 12.953125 -8.0625 L 8.625 -8.0625 L 8.625 -3.65625 L 5.484375 -3.65625 L 5.484375 -8.0625 L 1.140625 -8.0625 L 1.140625 -11.0625 L 5.484375 -11.0625 L 5.484375 -15.46875 L 8.625 -15.46875 Z M 8.625 -11.0625 "/></g></g></g></svg>