<svg xmlns="http://www.w3.org/2000/svg" xmlns:xlink="http://www.w3.org/1999/xlink" width="240" zoomAndPan="magnify" viewBox="0 0 180 101.249998" height="135" preserveAspectRatio="xMidYMid meet" version="1.0"><defs><clipPath id="28cdb2185d"><path d="M 0.660156 0 L 179.335938 0 L 179.335938 100.503906 L 0.660156 100.503906 Z M 0.660156 0 " clip-rule="nonzero"/></clipPath><clipPath id="a03c890783"><path d="M 4.382812 0 L 175.574219 0 C 176.5625 0 177.507812 0.390625 178.207031 1.089844 C 178.902344 1.789062 179.296875 2.734375 179.296875 3.722656 L 179.296875 96.78125 C 179.296875 97.769531 178.902344 98.71875 178.207031 99.414062 C 177.507812 100.113281 176.5625 100.503906 175.574219 100.503906 L 4.382812 100.503906 C 3.398438 100.503906 2.449219 100.113281 1.753906 99.414062 C 1.054688 98.71875 0.660156 97.769531 0.660156 96.78125 L 0.660156 3.722656 C 0.660156 2.734375 1.054688 1.789062 1.753906 1.089844 C 2.449219 0.390625 3.398438 0 4.382812 0 Z M 4.382812 0 " clip-rule="nonzero"/></clipPath><clipPath id="a23b5efcca"><path d="M 0.660156 0 L 179.335938 0 L 179.335938 100.503906 L 0.660156 100.503906 Z M 0.660156 0 " clip-rule="nonzero"/></clipPath><clipPath id="9c29e31c20"><path d="M 4.382812 0 L 175.570312 0 C 176.554688 0 177.503906 0.394531 178.203125 1.089844 C 178.898438 1.789062 179.292969 2.738281 179.292969 3.722656 L 179.292969 96.78125 C 179.292969 97.769531 178.898438 98.714844 178.203125 99.414062 C 177.503906 100.113281 176.554688 100.503906 175.570312 100.503906 L 4.382812 100.503906 C 3.398438 100.503906 2.449219 100.113281 1.753906 99.414062 C 1.054688 98.714844 0.660156 97.769531 0.660156 96.78125 L 0.660156 3.722656 C 0.660156 2.738281 1.054688 1.789062 1.753906 1.089844 C 2.449219 0.394531 3.398438 0 4.382812 0 Z M 4.382812 0 " clip-rule="nonzero"/></clipPath><clipPath id="9e94ef404a"><path d="M 9.660156 28.4375 L 86.347656 28.4375 L 86.347656 72.066406 L 9.660156 72.066406 Z M 9.660156 28.4375 " clip-rule="nonzero"/></clipPath><clipPath id="ac129a070c"><path d="M 11.148438 28.4375 L 84.753906 28.4375 C 85.578125 28.4375 86.242188 29.105469 86.242188 29.929688 L 86.242188 70.578125 C 86.242188 71.398438 85.578125 72.066406 84.753906 72.066406 L 11.148438 72.066406 C 10.324219 72.066406 9.660156 71.398438 9.660156 70.578125 L 9.660156 29.929688 C 9.660156 29.105469 10.324219 28.4375 11.148438 28.4375 Z M 11.148438 28.4375 " clip-rule="nonzero"/></clipPath><clipPath id="b2036b80aa"><path d="M 93.839844 28.648438 L 169.847656 28.648438 L 169.847656 72.273438 L 93.839844 72.273438 Z M 93.839844 28.648438 " clip-rule="nonzero"/></clipPath><clipPath id="d4eab6d790"><path d="M 95.328125 28.648438 L 168.285156 28.648438 C 169.105469 28.648438 169.773438 29.3125 169.773438 30.136719 L 169.773438 70.785156 C 169.773438 71.609375 169.105469 72.273438 168.285156 72.273438 L 95.328125 72.273438 C 94.507812 72.273438 93.839844 71.609375 93.839844 70.785156 L 93.839844 30.136719 C 93.839844 29.3125 94.507812 28.648438 95.328125 28.648438 Z M 95.328125 28.648438 " clip-rule="nonzero"/></clipPath></defs><g clip-path="url(#28cdb2185d)"><g clip-path="url(#a03c890783)"><path fill="#8f94a2" d="M 0.660156 0 L 179.292969 0 L 179.292969 100.503906 L 0.660156 100.503906 Z M 0.660156 0 " fill-opacity="1" fill-rule="nonzero"/></g></g><g clip-path="url(#a23b5efcca)"><g clip-path="url(#9c29e31c20)"><path stroke-linecap="butt" transform="matrix(0.744485, 0, 0, 0.744485, 0.661766, 0.00130608)" fill="none" stroke-linejoin="miter" d="M 4.998146 -0.00175434 L 234.938901 -0.00175434 C 236.261123 -0.00175434 237.536123 0.528184 238.475321 1.462135 C 239.409272 2.401332 239.93921 3.676332 239.93921 4.998555 L 239.93921 129.995785 C 239.93921 131.323254 239.409272 132.593007 238.475321 133.532204 C 237.536123 134.471402 236.261123 134.996093 234.938901 134.996093 L 4.998146 134.996093 C 3.675924 134.996093 2.400924 134.471402 1.466973 133.532204 C 0.527775 132.593007 -0.00216286 131.323254 -0.00216286 129.995785 L -0.00216286 4.998555 C -0.00216286 3.676332 0.527775 2.401332 1.466973 1.462135 C 2.400924 0.528184 3.675924 -0.00175434 4.998146 -0.00175434 Z M 4.998146 -0.00175434 " stroke="#575d68" stroke-width="6" stroke-opacity="1" stroke-miterlimit="4"/></g></g><g clip-path="url(#9e94ef404a)"><g clip-path="url(#ac129a070c)"><path fill="#ffffff" d="M 9.660156 28.4375 L 86.175781 28.4375 L 86.175781 72.066406 L 9.660156 72.066406 Z M 9.660156 28.4375 " fill-opacity="1" fill-rule="nonzero"/></g></g><g clip-path="url(#b2036b80aa)"><g clip-path="url(#d4eab6d790)"><path fill="#ffffff" d="M 93.839844 28.648438 L 169.847656 28.648438 L 169.847656 72.273438 L 93.839844 72.273438 Z M 93.839844 28.648438 " fill-opacity="1" fill-rule="nonzero"/></g></g></svg>