<svg xmlns="http://www.w3.org/2000/svg" xmlns:xlink="http://www.w3.org/1999/xlink" width="240" zoomAndPan="magnify" viewBox="0 0 180 101.249998" height="135" preserveAspectRatio="xMidYMid meet" version="1.0"><defs><g/><clipPath id="5b9265d478"><path d="M 0.660156 0 L 179.335938 0 L 179.335938 100.503906 L 0.660156 100.503906 Z M 0.660156 0 " clip-rule="nonzero"/></clipPath><clipPath id="864ac5ffb0"><path d="M 0.660156 0 L 179.335938 0 L 179.335938 100.503906 L 0.660156 100.503906 Z M 0.660156 0 " clip-rule="nonzero"/></clipPath><clipPath id="9d6952749d"><path d="M 4.382812 0 L 175.574219 0 C 176.5625 0 177.507812 0.390625 178.207031 1.089844 C 178.902344 1.789062 179.296875 2.734375 179.296875 3.722656 L 179.296875 96.78125 C 179.296875 97.769531 178.902344 98.71875 178.207031 99.414062 C 177.507812 100.113281 176.5625 100.503906 175.574219 100.503906 L 4.382812 100.503906 C 3.398438 100.503906 2.449219 100.113281 1.753906 99.414062 C 1.054688 98.71875 0.660156 97.769531 0.660156 96.78125 L 0.660156 3.722656 C 0.660156 2.734375 1.054688 1.789062 1.753906 1.089844 C 2.449219 0.390625 3.398438 0 4.382812 0 Z M 4.382812 0 " clip-rule="nonzero"/></clipPath><clipPath id="7707b2da9f"><path d="M 0.660156 0 L 179.335938 0 L 179.335938 100.503906 L 0.660156 100.503906 Z M 0.660156 0 " clip-rule="nonzero"/></clipPath><clipPath id="977dd34489"><path d="M 4.382812 0 L 175.570312 0 C 176.554688 0 177.503906 0.394531 178.203125 1.089844 C 178.898438 1.789062 179.292969 2.738281 179.292969 3.722656 L 179.292969 96.78125 C 179.292969 97.769531 178.898438 98.714844 178.203125 99.414062 C 177.503906 100.113281 176.554688 100.503906 175.570312 100.503906 L 4.382812 100.503906 C 3.398438 100.503906 2.449219 100.113281 1.753906 99.414062 C 1.054688 98.714844 0.660156 97.769531 0.660156 96.78125 L 0.660156 3.722656 C 0.660156 2.738281 1.054688 1.789062 1.753906 1.089844 C 2.449219 0.394531 3.398438 0 4.382812 0 Z M 4.382812 0 " clip-rule="nonzero"/></clipPath><clipPath id="bd47180891"><path d="M 6.929688 5.269531 L 173.113281 5.269531 L 173.113281 94.460938 L 6.929688 94.460938 Z M 6.929688 5.269531 " clip-rule="nonzero"/></clipPath><clipPath id="4f472eef91"><path d="M 9.910156 5.269531 L 170.050781 5.269531 C 171.695312 5.269531 173.027344 6.605469 173.027344 8.25 L 173.027344 91.480469 C 173.027344 93.125 171.695312 94.460938 170.050781 94.460938 L 9.910156 94.460938 C 8.265625 94.460938 6.929688 93.125 6.929688 91.480469 L 6.929688 8.25 C 6.929688 6.605469 8.265625 5.269531 9.910156 5.269531 Z M 9.910156 5.269531 " clip-rule="nonzero"/></clipPath></defs><g clip-path="url(#5b9265d478)"><path fill="#ffffff" d="M 0.660156 0 L 179.339844 0 L 179.339844 100.503906 L 0.660156 100.503906 Z M 0.660156 0 " fill-opacity="1" fill-rule="nonzero"/><path fill="#ffffff" d="M 0.660156 0 L 179.339844 0 L 179.339844 100.503906 L 0.660156 100.503906 Z M 0.660156 0 " fill-opacity="1" fill-rule="nonzero"/></g><g clip-path="url(#864ac5ffb0)"><g clip-path="url(#9d6952749d)"><path fill="#8f94a2" d="M 0.660156 0 L 179.292969 0 L 179.292969 100.503906 L 0.660156 100.503906 Z M 0.660156 0 " fill-opacity="1" fill-rule="nonzero"/></g></g><g clip-path="url(#7707b2da9f)"><g clip-path="url(#977dd34489)"><path stroke-linecap="butt" transform="matrix(0.744485, 0, 0, 0.744485, 0.661766, 0.00130608)" fill="none" stroke-linejoin="miter" d="M 4.998146 -0.00175434 L 234.938901 -0.00175434 C 236.261123 -0.00175434 237.536123 0.528184 238.475321 1.462135 C 239.409272 2.401332 239.93921 3.676332 239.93921 4.998555 L 239.93921 129.995785 C 239.93921 131.323254 239.409272 132.593007 238.475321 133.532204 C 237.536123 134.471402 236.261123 134.996093 234.938901 134.996093 L 4.998146 134.996093 C 3.675924 134.996093 2.400924 134.471402 1.466973 133.532204 C 0.527775 132.593007 -0.00216286 131.323254 -0.00216286 129.995785 L -0.00216286 4.998555 C -0.00216286 3.676332 0.527775 2.401332 1.466973 1.462135 C 2.400924 0.528184 3.675924 -0.00175434 4.998146 -0.00175434 Z M 4.998146 -0.00175434 " stroke="#575d68" stroke-width="4" stroke-opacity="1" stroke-miterlimit="4"/></g></g><g clip-path="url(#bd47180891)"><g clip-path="url(#4f472eef91)"><path fill="#ffffff" d="M 6.929688 5.269531 L 173.113281 5.269531 L 173.113281 94.460938 L 6.929688 94.460938 Z M 6.929688 5.269531 " fill-opacity="1" fill-rule="nonzero"/></g></g><g fill="#8f94a2" fill-opacity="1"><g transform="translate(64.379233, 80.388996)"><g><path d="M 21.03125 -4.421875 L 21.03125 -21.90625 L 3.53125 -21.90625 L 3.53125 -31.09375 L 21.03125 -31.09375 L 21.03125 -48.59375 L 30.21875 -48.59375 L 30.21875 -31.09375 L 47.703125 -31.09375 L 47.703125 -21.90625 L 30.21875 -21.90625 L 30.21875 -4.421875 Z M 21.03125 -4.421875 "/></g></g></g></svg>