<svg xmlns="http://www.w3.org/2000/svg" xmlns:xlink="http://www.w3.org/1999/xlink" width="240" zoomAndPan="magnify" viewBox="0 0 180 101.249998" height="135" preserveAspectRatio="xMidYMid meet" version="1.0"><defs><clipPath id="700bc829d8"><path d="M 0.660156 0 L 179.335938 0 L 179.335938 100.503906 L 0.660156 100.503906 Z M 0.660156 0 " clip-rule="nonzero"/></clipPath><clipPath id="32321418bc"><path d="M 4.382812 0 L 175.574219 0 C 176.5625 0 177.507812 0.390625 178.207031 1.089844 C 178.902344 1.789062 179.296875 2.734375 179.296875 3.722656 L 179.296875 96.78125 C 179.296875 97.769531 178.902344 98.71875 178.207031 99.414062 C 177.507812 100.113281 176.5625 100.503906 175.574219 100.503906 L 4.382812 100.503906 C 3.398438 100.503906 2.449219 100.113281 1.753906 99.414062 C 1.054688 98.71875 0.660156 97.769531 0.660156 96.78125 L 0.660156 3.722656 C 0.660156 2.734375 1.054688 1.789062 1.753906 1.089844 C 2.449219 0.390625 3.398438 0 4.382812 0 Z M 4.382812 0 " clip-rule="nonzero"/></clipPath><clipPath id="9d90f934c4"><path d="M 0.660156 0 L 179.335938 0 L 179.335938 100.503906 L 0.660156 100.503906 Z M 0.660156 0 " clip-rule="nonzero"/></clipPath><clipPath id="1c839beeae"><path d="M 4.382812 0 L 175.570312 0 C 176.554688 0 177.503906 0.394531 178.203125 1.089844 C 178.898438 1.789062 179.292969 2.738281 179.292969 3.722656 L 179.292969 96.78125 C 179.292969 97.769531 178.898438 98.714844 178.203125 99.414062 C 177.503906 100.113281 176.554688 100.503906 175.570312 100.503906 L 4.382812 100.503906 C 3.398438 100.503906 2.449219 100.113281 1.753906 99.414062 C 1.054688 98.714844 0.660156 97.769531 0.660156 96.78125 L 0.660156 3.722656 C 0.660156 2.738281 1.054688 1.789062 1.753906 1.089844 C 2.449219 0.394531 3.398438 0 4.382812 0 Z M 4.382812 0 " clip-rule="nonzero"/></clipPath><clipPath id="bdca4d36f7"><path d="M 16.082031 15.796875 L 133.984375 15.796875 L 133.984375 81.699219 L 16.082031 81.699219 Z M 16.082031 15.796875 " clip-rule="nonzero"/></clipPath><clipPath id="eacefd6321"><path d="M 17.570312 15.796875 L 132.480469 15.796875 C 133.304688 15.796875 133.96875 16.464844 133.96875 17.285156 L 133.96875 80.210938 C 133.96875 81.03125 133.304688 81.699219 132.480469 81.699219 L 17.570312 81.699219 C 16.746094 81.699219 16.082031 81.03125 16.082031 80.210938 L 16.082031 17.285156 C 16.082031 16.464844 16.746094 15.796875 17.570312 15.796875 Z M 17.570312 15.796875 " clip-rule="nonzero"/></clipPath><clipPath id="139288fd39"><path d="M 144.285156 8.75 L 162.355469 8.75 L 162.355469 26.613281 L 144.285156 26.613281 Z M 144.285156 8.75 " clip-rule="nonzero"/></clipPath><clipPath id="412709e271"><path d="M 145.773438 8.75 L 160.859375 8.75 C 161.683594 8.75 162.351562 9.417969 162.351562 10.238281 L 162.351562 25.125 C 162.351562 25.945312 161.683594 26.613281 160.859375 26.613281 L 145.773438 26.613281 C 144.953125 26.613281 144.285156 25.945312 144.285156 25.125 L 144.285156 10.238281 C 144.285156 9.417969 144.953125 8.75 145.773438 8.75 Z M 145.773438 8.75 " clip-rule="nonzero"/></clipPath><clipPath id="3d6aece1c2"><path d="M 144.285156 29.671875 L 162.355469 29.671875 L 162.355469 47.53125 L 144.285156 47.53125 Z M 144.285156 29.671875 " clip-rule="nonzero"/></clipPath><clipPath id="da54e48e49"><path d="M 145.773438 29.671875 L 160.859375 29.671875 C 161.683594 29.671875 162.351562 30.335938 162.351562 31.160156 L 162.351562 46.042969 C 162.351562 46.867188 161.683594 47.53125 160.859375 47.53125 L 145.773438 47.53125 C 144.953125 47.53125 144.285156 46.867188 144.285156 46.042969 L 144.285156 31.160156 C 144.285156 30.335938 144.953125 29.671875 145.773438 29.671875 Z M 145.773438 29.671875 " clip-rule="nonzero"/></clipPath><clipPath id="c811a452f6"><path d="M 144.285156 50.398438 L 162.355469 50.398438 L 162.355469 68.257812 L 144.285156 68.257812 Z M 144.285156 50.398438 " clip-rule="nonzero"/></clipPath><clipPath id="62106e1f80"><path d="M 145.773438 50.398438 L 160.859375 50.398438 C 161.683594 50.398438 162.351562 51.0625 162.351562 51.886719 L 162.351562 66.769531 C 162.351562 67.59375 161.683594 68.257812 160.859375 68.257812 L 145.773438 68.257812 C 144.953125 68.257812 144.285156 67.59375 144.285156 66.769531 L 144.285156 51.886719 C 144.285156 51.0625 144.953125 50.398438 145.773438 50.398438 Z M 145.773438 50.398438 " clip-rule="nonzero"/></clipPath><clipPath id="1f704dcdee"><path d="M 144.285156 71.121094 L 162.355469 71.121094 L 162.355469 88.984375 L 144.285156 88.984375 Z M 144.285156 71.121094 " clip-rule="nonzero"/></clipPath><clipPath id="ade8ad00e4"><path d="M 145.773438 71.121094 L 160.859375 71.121094 C 161.683594 71.121094 162.351562 71.789062 162.351562 72.613281 L 162.351562 87.496094 C 162.351562 88.320312 161.683594 88.984375 160.859375 88.984375 L 145.773438 88.984375 C 144.953125 88.984375 144.285156 88.320312 144.285156 87.496094 L 144.285156 72.613281 C 144.285156 71.789062 144.953125 71.121094 145.773438 71.121094 Z M 145.773438 71.121094 " clip-rule="nonzero"/></clipPath></defs><g clip-path="url(#700bc829d8)"><g clip-path="url(#32321418bc)"><path fill="#8f94a2" d="M 0.660156 0 L 179.292969 0 L 179.292969 100.503906 L 0.660156 100.503906 Z M 0.660156 0 " fill-opacity="1" fill-rule="nonzero"/></g></g><g clip-path="url(#9d90f934c4)"><g clip-path="url(#1c839beeae)"><path stroke-linecap="butt" transform="matrix(0.744485, 0, 0, 0.744485, 0.661766, 0.00130608)" fill="none" stroke-linejoin="miter" d="M 4.998146 -0.00175434 L 234.938901 -0.00175434 C 236.261123 -0.00175434 237.536123 0.528184 238.475321 1.462135 C 239.409272 2.401332 239.93921 3.676332 239.93921 4.998555 L 239.93921 129.995785 C 239.93921 131.323254 239.409272 132.593007 238.475321 133.532204 C 237.536123 134.471402 236.261123 134.996093 234.938901 134.996093 L 4.998146 134.996093 C 3.675924 134.996093 2.400924 134.471402 1.466973 133.532204 C 0.527775 132.593007 -0.00216286 131.323254 -0.00216286 129.995785 L -0.00216286 4.998555 C -0.00216286 3.676332 0.527775 2.401332 1.466973 1.462135 C 2.400924 0.528184 3.675924 -0.00175434 4.998146 -0.00175434 Z M 4.998146 -0.00175434 " stroke="#575d68" stroke-width="4" stroke-opacity="1" stroke-miterlimit="4"/></g></g><g clip-path="url(#bdca4d36f7)"><g clip-path="url(#eacefd6321)"><path fill="#ffffff" d="M 16.082031 15.796875 L 133.984375 15.796875 L 133.984375 81.699219 L 16.082031 81.699219 Z M 16.082031 15.796875 " fill-opacity="1" fill-rule="nonzero"/></g></g><g clip-path="url(#139288fd39)"><g clip-path="url(#412709e271)"><path fill="#ffffff" d="M 144.285156 8.75 L 162.355469 8.75 L 162.355469 26.613281 L 144.285156 26.613281 Z M 144.285156 8.75 " fill-opacity="1" fill-rule="nonzero"/></g></g><g clip-path="url(#3d6aece1c2)"><g clip-path="url(#da54e48e49)"><path fill="#ffffff" d="M 144.285156 29.671875 L 162.355469 29.671875 L 162.355469 47.53125 L 144.285156 47.53125 Z M 144.285156 29.671875 " fill-opacity="1" fill-rule="nonzero"/></g></g><g clip-path="url(#c811a452f6)"><g clip-path="url(#62106e1f80)"><path fill="#ffffff" d="M 144.285156 50.398438 L 162.355469 50.398438 L 162.355469 68.257812 L 144.285156 68.257812 Z M 144.285156 50.398438 " fill-opacity="1" fill-rule="nonzero"/></g></g><g clip-path="url(#1f704dcdee)"><g clip-path="url(#ade8ad00e4)"><path fill="#ffffff" d="M 144.285156 71.121094 L 162.355469 71.121094 L 162.355469 88.984375 L 144.285156 88.984375 Z M 144.285156 71.121094 " fill-opacity="1" fill-rule="nonzero"/></g></g></svg>