<svg xmlns="http://www.w3.org/2000/svg" xmlns:xlink="http://www.w3.org/1999/xlink" width="240" zoomAndPan="magnify" viewBox="0 0 180 101.249998" height="135" preserveAspectRatio="xMidYMid meet" version="1.0"><defs><clipPath id="3eedde4b0c"><path d="M 0.660156 0 L 179.335938 0 L 179.335938 100.503906 L 0.660156 100.503906 Z M 0.660156 0 " clip-rule="nonzero"/></clipPath><clipPath id="a6c22832d3"><path d="M 4.382812 0 L 175.574219 0 C 176.5625 0 177.507812 0.390625 178.207031 1.089844 C 178.902344 1.789062 179.296875 2.734375 179.296875 3.722656 L 179.296875 96.78125 C 179.296875 97.769531 178.902344 98.71875 178.207031 99.414062 C 177.507812 100.113281 176.5625 100.503906 175.574219 100.503906 L 4.382812 100.503906 C 3.398438 100.503906 2.449219 100.113281 1.753906 99.414062 C 1.054688 98.71875 0.660156 97.769531 0.660156 96.78125 L 0.660156 3.722656 C 0.660156 2.734375 1.054688 1.789062 1.753906 1.089844 C 2.449219 0.390625 3.398438 0 4.382812 0 Z M 4.382812 0 " clip-rule="nonzero"/></clipPath><clipPath id="3b76c24610"><path d="M 0.660156 0 L 179.335938 0 L 179.335938 100.503906 L 0.660156 100.503906 Z M 0.660156 0 " clip-rule="nonzero"/></clipPath><clipPath id="da4b07fed4"><path d="M 4.382812 0 L 175.570312 0 C 176.554688 0 177.503906 0.394531 178.203125 1.089844 C 178.898438 1.789062 179.292969 2.738281 179.292969 3.722656 L 179.292969 96.78125 C 179.292969 97.769531 178.898438 98.714844 178.203125 99.414062 C 177.503906 100.113281 176.554688 100.503906 175.570312 100.503906 L 4.382812 100.503906 C 3.398438 100.503906 2.449219 100.113281 1.753906 99.414062 C 1.054688 98.714844 0.660156 97.769531 0.660156 96.78125 L 0.660156 3.722656 C 0.660156 2.738281 1.054688 1.789062 1.753906 1.089844 C 2.449219 0.394531 3.398438 0 4.382812 0 Z M 4.382812 0 " clip-rule="nonzero"/></clipPath><clipPath id="4e45ac421e"><path d="M 6.929688 6.183594 L 173 6.183594 L 173 94.320312 L 6.929688 94.320312 Z M 6.929688 6.183594 " clip-rule="nonzero"/></clipPath><clipPath id="6b21044a8c"><path d="M 9.910156 6.183594 L 170.050781 6.183594 C 171.695312 6.183594 173.027344 7.519531 173.027344 9.164062 L 173.027344 91.34375 C 173.027344 92.988281 171.695312 94.320312 170.050781 94.320312 L 9.910156 94.320312 C 8.265625 94.320312 6.929688 92.988281 6.929688 91.34375 L 6.929688 9.164062 C 6.929688 7.519531 8.265625 6.183594 9.910156 6.183594 Z M 9.910156 6.183594 " clip-rule="nonzero"/></clipPath></defs><g clip-path="url(#3eedde4b0c)"><g clip-path="url(#a6c22832d3)"><path fill="#8f94a2" d="M 0.660156 0 L 179.292969 0 L 179.292969 100.503906 L 0.660156 100.503906 Z M 0.660156 0 " fill-opacity="1" fill-rule="nonzero"/></g></g><g clip-path="url(#3b76c24610)"><g clip-path="url(#da4b07fed4)"><path stroke-linecap="butt" transform="matrix(0.744485, 0, 0, 0.744485, 0.661766, 0.00130608)" fill="none" stroke-linejoin="miter" d="M 4.998146 -0.00175434 L 234.938901 -0.00175434 C 236.261123 -0.00175434 237.536123 0.528184 238.475321 1.462135 C 239.409272 2.401332 239.93921 3.676332 239.93921 4.998555 L 239.93921 129.995785 C 239.93921 131.323254 239.409272 132.593007 238.475321 133.532204 C 237.536123 134.471402 236.261123 134.996093 234.938901 134.996093 L 4.998146 134.996093 C 3.675924 134.996093 2.400924 134.471402 1.466973 133.532204 C 0.527775 132.593007 -0.00216286 131.323254 -0.00216286 129.995785 L -0.00216286 4.998555 C -0.00216286 3.676332 0.527775 2.401332 1.466973 1.462135 C 2.400924 0.528184 3.675924 -0.00175434 4.998146 -0.00175434 Z M 4.998146 -0.00175434 " stroke="#575d68" stroke-width="6" stroke-opacity="1" stroke-miterlimit="4"/></g></g><g clip-path="url(#4e45ac421e)"><g clip-path="url(#6b21044a8c)"><path fill="#ffffff" d="M 6.929688 6.183594 L 172.875 6.183594 L 172.875 94.320312 L 6.929688 94.320312 Z M 6.929688 6.183594 " fill-opacity="1" fill-rule="nonzero"/></g></g></svg>